<svg width="25" height="39" viewBox="0 0 25 39" fill="none" xmlns="http://www.w3.org/2000/svg">
<path d="M18.5945 19.5465C20.3931 19.5465 22.1316 19.4303 23.7767 19.214V1.18237C22.1317 0.966273 20.3931 0.850098 18.5945 0.850098C8.32508 0.850098 0 4.62586 0 9.2837V11.1127C0 15.7704 8.32508 19.5465 18.5945 19.5465Z" fill="#FFDC64"/>
<path d="M18.5945 28.9616C20.3931 28.9616 22.1316 28.8454 23.7767 28.6295V23.3441C22.1313 23.5602 20.3936 23.678 18.5945 23.678C9.63041 23.678 2.14852 20.8008 0.391075 16.9717C0.135139 17.5294 0 18.107 0 18.699V20.528C0 25.1858 8.32508 28.9616 18.5945 28.9616Z" fill="#FFDC64"/>
<path d="M23.7767 33.1709V32.7601C22.1313 32.9762 20.3936 33.094 18.5945 33.094C9.63041 33.094 2.14852 30.2168 0.391075 26.3877C0.135139 26.9453 0 27.5228 0 28.1149V29.9439C0 34.6019 8.32508 38.3776 18.5945 38.3776C20.6482 38.3776 22.6235 38.2262 24.4707 37.9474C24.0128 37.0108 23.7767 36.0231 23.7767 34.9998V33.1709Z" fill="#FFDC64"/>
</svg>
